<mxfile host="app.diagrams.net" modified="2021-07-19T13:43:09.896Z" agent="5.0 (Macintosh)" etag="palWr4_iauHYRmwMKiNA" version="14.9.0" type="github">
  <diagram id="Z1trSQCHoKJ7LO43XMHb" name="Page-1">
    <mxGraphModel dx="1186" dy="651" grid="1" gridSize="10" guides="1" tooltips="1" connect="1" arrows="1" fold="1" page="1" pageScale="1" pageWidth="827" pageHeight="1169" math="0" shadow="0">
      <root>
        <mxCell id="0" />
        <mxCell id="1" parent="0" />
        <mxCell id="iuXq785Svx12iFxmTYCm-1" value="" style="shape=table;startSize=0;container=1;collapsible=0;childLayout=tableLayout;" parent="1" vertex="1">
          <mxGeometry x="414" y="340" width="282" height="317" as="geometry" />
        </mxCell>
        <mxCell id="iuXq785Svx12iFxmTYCm-2" value="" style="shape=partialRectangle;collapsible=0;dropTarget=0;pointerEvents=0;fillColor=none;top=0;left=0;bottom=0;right=0;points=[[0,0.5],[1,0.5]];portConstraint=eastwest;" parent="iuXq785Svx12iFxmTYCm-1" vertex="1">
          <mxGeometry width="282" height="53" as="geometry" />
        </mxCell>
        <mxCell id="iuXq785Svx12iFxmTYCm-3" value="Parameter name" style="shape=partialRectangle;html=1;whiteSpace=wrap;connectable=0;overflow=hidden;fillColor=none;top=0;left=0;bottom=0;right=0;" parent="iuXq785Svx12iFxmTYCm-2" vertex="1">
          <mxGeometry width="100" height="53" as="geometry" />
        </mxCell>
        <mxCell id="iuXq785Svx12iFxmTYCm-4" value="Unit" style="shape=partialRectangle;html=1;whiteSpace=wrap;connectable=0;overflow=hidden;fillColor=none;top=0;left=0;bottom=0;right=0;" parent="iuXq785Svx12iFxmTYCm-2" vertex="1">
          <mxGeometry x="100" width="91" height="53" as="geometry" />
        </mxCell>
        <mxCell id="Yx1ct2XPLeCev9idxveK-1" value="Value" style="shape=partialRectangle;html=1;whiteSpace=wrap;connectable=0;overflow=hidden;fillColor=none;top=0;left=0;bottom=0;right=0;" vertex="1" parent="iuXq785Svx12iFxmTYCm-2">
          <mxGeometry x="191" width="91" height="53" as="geometry" />
        </mxCell>
        <mxCell id="iuXq785Svx12iFxmTYCm-14" style="shape=partialRectangle;collapsible=0;dropTarget=0;pointerEvents=0;fillColor=none;top=0;left=0;bottom=0;right=0;points=[[0,0.5],[1,0.5]];portConstraint=eastwest;" parent="iuXq785Svx12iFxmTYCm-1" vertex="1">
          <mxGeometry y="53" width="282" height="53" as="geometry" />
        </mxCell>
        <mxCell id="iuXq785Svx12iFxmTYCm-15" value="Parameter 1" style="shape=partialRectangle;html=1;whiteSpace=wrap;connectable=0;overflow=hidden;fillColor=none;top=0;left=0;bottom=0;right=0;" parent="iuXq785Svx12iFxmTYCm-14" vertex="1">
          <mxGeometry width="100" height="53" as="geometry" />
        </mxCell>
        <mxCell id="iuXq785Svx12iFxmTYCm-16" style="shape=partialRectangle;html=1;whiteSpace=wrap;connectable=0;overflow=hidden;fillColor=none;top=0;left=0;bottom=0;right=0;" parent="iuXq785Svx12iFxmTYCm-14" vertex="1">
          <mxGeometry x="100" width="91" height="53" as="geometry" />
        </mxCell>
        <mxCell id="Yx1ct2XPLeCev9idxveK-2" style="shape=partialRectangle;html=1;whiteSpace=wrap;connectable=0;overflow=hidden;fillColor=none;top=0;left=0;bottom=0;right=0;" vertex="1" parent="iuXq785Svx12iFxmTYCm-14">
          <mxGeometry x="191" width="91" height="53" as="geometry" />
        </mxCell>
        <mxCell id="iuXq785Svx12iFxmTYCm-26" style="shape=partialRectangle;collapsible=0;dropTarget=0;pointerEvents=0;fillColor=none;top=0;left=0;bottom=0;right=0;points=[[0,0.5],[1,0.5]];portConstraint=eastwest;" parent="iuXq785Svx12iFxmTYCm-1" vertex="1">
          <mxGeometry y="106" width="282" height="53" as="geometry" />
        </mxCell>
        <mxCell id="iuXq785Svx12iFxmTYCm-27" value="Parameter 2" style="shape=partialRectangle;html=1;whiteSpace=wrap;connectable=0;overflow=hidden;fillColor=none;top=0;left=0;bottom=0;right=0;" parent="iuXq785Svx12iFxmTYCm-26" vertex="1">
          <mxGeometry width="100" height="53" as="geometry" />
        </mxCell>
        <mxCell id="iuXq785Svx12iFxmTYCm-28" style="shape=partialRectangle;html=1;whiteSpace=wrap;connectable=0;overflow=hidden;fillColor=none;top=0;left=0;bottom=0;right=0;" parent="iuXq785Svx12iFxmTYCm-26" vertex="1">
          <mxGeometry x="100" width="91" height="53" as="geometry" />
        </mxCell>
        <mxCell id="Yx1ct2XPLeCev9idxveK-3" style="shape=partialRectangle;html=1;whiteSpace=wrap;connectable=0;overflow=hidden;fillColor=none;top=0;left=0;bottom=0;right=0;" vertex="1" parent="iuXq785Svx12iFxmTYCm-26">
          <mxGeometry x="191" width="91" height="53" as="geometry" />
        </mxCell>
        <mxCell id="iuXq785Svx12iFxmTYCm-38" value="" style="shape=partialRectangle;collapsible=0;dropTarget=0;pointerEvents=0;fillColor=none;top=0;left=0;bottom=0;right=0;points=[[0,0.5],[1,0.5]];portConstraint=eastwest;" parent="iuXq785Svx12iFxmTYCm-1" vertex="1">
          <mxGeometry y="159" width="282" height="52" as="geometry" />
        </mxCell>
        <mxCell id="iuXq785Svx12iFxmTYCm-39" value="Parameter 3" style="shape=partialRectangle;html=1;whiteSpace=wrap;connectable=0;overflow=hidden;fillColor=none;top=0;left=0;bottom=0;right=0;" parent="iuXq785Svx12iFxmTYCm-38" vertex="1">
          <mxGeometry width="100" height="52" as="geometry" />
        </mxCell>
        <mxCell id="iuXq785Svx12iFxmTYCm-40" value="" style="shape=partialRectangle;html=1;whiteSpace=wrap;connectable=0;overflow=hidden;fillColor=none;top=0;left=0;bottom=0;right=0;" parent="iuXq785Svx12iFxmTYCm-38" vertex="1">
          <mxGeometry x="100" width="91" height="52" as="geometry" />
        </mxCell>
        <mxCell id="Yx1ct2XPLeCev9idxveK-4" style="shape=partialRectangle;html=1;whiteSpace=wrap;connectable=0;overflow=hidden;fillColor=none;top=0;left=0;bottom=0;right=0;" vertex="1" parent="iuXq785Svx12iFxmTYCm-38">
          <mxGeometry x="191" width="91" height="52" as="geometry" />
        </mxCell>
        <mxCell id="iuXq785Svx12iFxmTYCm-50" value="" style="shape=partialRectangle;collapsible=0;dropTarget=0;pointerEvents=0;fillColor=none;top=0;left=0;bottom=0;right=0;points=[[0,0.5],[1,0.5]];portConstraint=eastwest;" parent="iuXq785Svx12iFxmTYCm-1" vertex="1">
          <mxGeometry y="211" width="282" height="53" as="geometry" />
        </mxCell>
        <mxCell id="iuXq785Svx12iFxmTYCm-51" value="Parameter 4" style="shape=partialRectangle;html=1;whiteSpace=wrap;connectable=0;overflow=hidden;fillColor=none;top=0;left=0;bottom=0;right=0;" parent="iuXq785Svx12iFxmTYCm-50" vertex="1">
          <mxGeometry width="100" height="53" as="geometry" />
        </mxCell>
        <mxCell id="iuXq785Svx12iFxmTYCm-52" value="" style="shape=partialRectangle;html=1;whiteSpace=wrap;connectable=0;overflow=hidden;fillColor=none;top=0;left=0;bottom=0;right=0;" parent="iuXq785Svx12iFxmTYCm-50" vertex="1">
          <mxGeometry x="100" width="91" height="53" as="geometry" />
        </mxCell>
        <mxCell id="Yx1ct2XPLeCev9idxveK-5" style="shape=partialRectangle;html=1;whiteSpace=wrap;connectable=0;overflow=hidden;fillColor=none;top=0;left=0;bottom=0;right=0;" vertex="1" parent="iuXq785Svx12iFxmTYCm-50">
          <mxGeometry x="191" width="91" height="53" as="geometry" />
        </mxCell>
        <mxCell id="iuXq785Svx12iFxmTYCm-62" value="" style="shape=partialRectangle;collapsible=0;dropTarget=0;pointerEvents=0;fillColor=none;top=0;left=0;bottom=0;right=0;points=[[0,0.5],[1,0.5]];portConstraint=eastwest;" parent="iuXq785Svx12iFxmTYCm-1" vertex="1">
          <mxGeometry y="264" width="282" height="53" as="geometry" />
        </mxCell>
        <mxCell id="iuXq785Svx12iFxmTYCm-63" value="Parameter 5" style="shape=partialRectangle;html=1;whiteSpace=wrap;connectable=0;overflow=hidden;fillColor=none;top=0;left=0;bottom=0;right=0;" parent="iuXq785Svx12iFxmTYCm-62" vertex="1">
          <mxGeometry width="100" height="53" as="geometry" />
        </mxCell>
        <mxCell id="iuXq785Svx12iFxmTYCm-64" value="" style="shape=partialRectangle;html=1;whiteSpace=wrap;connectable=0;overflow=hidden;fillColor=none;top=0;left=0;bottom=0;right=0;" parent="iuXq785Svx12iFxmTYCm-62" vertex="1">
          <mxGeometry x="100" width="91" height="53" as="geometry" />
        </mxCell>
        <mxCell id="Yx1ct2XPLeCev9idxveK-6" style="shape=partialRectangle;html=1;whiteSpace=wrap;connectable=0;overflow=hidden;fillColor=none;top=0;left=0;bottom=0;right=0;" vertex="1" parent="iuXq785Svx12iFxmTYCm-62">
          <mxGeometry x="191" width="91" height="53" as="geometry" />
        </mxCell>
        <mxCell id="iuXq785Svx12iFxmTYCm-212" value="" style="shape=table;startSize=0;container=1;collapsible=0;childLayout=tableLayout;" parent="1" vertex="1">
          <mxGeometry x="310" y="340" width="104" height="317" as="geometry" />
        </mxCell>
        <mxCell id="iuXq785Svx12iFxmTYCm-213" value="" style="shape=partialRectangle;collapsible=0;dropTarget=0;pointerEvents=0;fillColor=none;top=0;left=0;bottom=0;right=0;points=[[0,0.5],[1,0.5]];portConstraint=eastwest;" parent="iuXq785Svx12iFxmTYCm-212" vertex="1">
          <mxGeometry width="104" height="317" as="geometry" />
        </mxCell>
        <mxCell id="iuXq785Svx12iFxmTYCm-214" value="Machine 1" style="shape=partialRectangle;html=1;whiteSpace=wrap;connectable=0;overflow=hidden;fillColor=none;top=0;left=0;bottom=0;right=0;" parent="iuXq785Svx12iFxmTYCm-213" vertex="1">
          <mxGeometry width="104" height="317" as="geometry" />
        </mxCell>
        <mxCell id="iuXq785Svx12iFxmTYCm-215" value="" style="shape=table;startSize=0;container=1;collapsible=0;childLayout=tableLayout;" parent="1" vertex="1">
          <mxGeometry x="696" y="340" width="104" height="317" as="geometry" />
        </mxCell>
        <mxCell id="iuXq785Svx12iFxmTYCm-216" value="" style="shape=partialRectangle;collapsible=0;dropTarget=0;pointerEvents=0;fillColor=none;top=0;left=0;bottom=0;right=0;points=[[0,0.5],[1,0.5]];portConstraint=eastwest;" parent="iuXq785Svx12iFxmTYCm-215" vertex="1">
          <mxGeometry width="104" height="317" as="geometry" />
        </mxCell>
        <mxCell id="iuXq785Svx12iFxmTYCm-217" value="Machine 2" style="shape=partialRectangle;html=1;whiteSpace=wrap;connectable=0;overflow=hidden;fillColor=none;top=0;left=0;bottom=0;right=0;" parent="iuXq785Svx12iFxmTYCm-216" vertex="1">
          <mxGeometry width="104" height="317" as="geometry" />
        </mxCell>
        <mxCell id="iuXq785Svx12iFxmTYCm-265" value="" style="shape=table;startSize=0;container=1;collapsible=0;childLayout=tableLayout;" parent="1" vertex="1">
          <mxGeometry x="800" y="340" width="282" height="317" as="geometry" />
        </mxCell>
        <mxCell id="iuXq785Svx12iFxmTYCm-266" value="" style="shape=partialRectangle;collapsible=0;dropTarget=0;pointerEvents=0;fillColor=none;top=0;left=0;bottom=0;right=0;points=[[0,0.5],[1,0.5]];portConstraint=eastwest;" parent="iuXq785Svx12iFxmTYCm-265" vertex="1">
          <mxGeometry width="282" height="53" as="geometry" />
        </mxCell>
        <mxCell id="iuXq785Svx12iFxmTYCm-267" value="Parameter name" style="shape=partialRectangle;html=1;whiteSpace=wrap;connectable=0;overflow=hidden;fillColor=none;top=0;left=0;bottom=0;right=0;" parent="iuXq785Svx12iFxmTYCm-266" vertex="1">
          <mxGeometry width="100" height="53" as="geometry" />
        </mxCell>
        <mxCell id="iuXq785Svx12iFxmTYCm-268" value="Unit" style="shape=partialRectangle;html=1;whiteSpace=wrap;connectable=0;overflow=hidden;fillColor=none;top=0;left=0;bottom=0;right=0;" parent="iuXq785Svx12iFxmTYCm-266" vertex="1">
          <mxGeometry x="100" width="91" height="53" as="geometry" />
        </mxCell>
        <mxCell id="Yx1ct2XPLeCev9idxveK-7" value="Value" style="shape=partialRectangle;html=1;whiteSpace=wrap;connectable=0;overflow=hidden;fillColor=none;top=0;left=0;bottom=0;right=0;" vertex="1" parent="iuXq785Svx12iFxmTYCm-266">
          <mxGeometry x="191" width="91" height="53" as="geometry" />
        </mxCell>
        <mxCell id="iuXq785Svx12iFxmTYCm-270" style="shape=partialRectangle;collapsible=0;dropTarget=0;pointerEvents=0;fillColor=none;top=0;left=0;bottom=0;right=0;points=[[0,0.5],[1,0.5]];portConstraint=eastwest;" parent="iuXq785Svx12iFxmTYCm-265" vertex="1">
          <mxGeometry y="53" width="282" height="53" as="geometry" />
        </mxCell>
        <mxCell id="iuXq785Svx12iFxmTYCm-271" value="Parameter 1" style="shape=partialRectangle;html=1;whiteSpace=wrap;connectable=0;overflow=hidden;fillColor=none;top=0;left=0;bottom=0;right=0;" parent="iuXq785Svx12iFxmTYCm-270" vertex="1">
          <mxGeometry width="100" height="53" as="geometry" />
        </mxCell>
        <mxCell id="iuXq785Svx12iFxmTYCm-272" style="shape=partialRectangle;html=1;whiteSpace=wrap;connectable=0;overflow=hidden;fillColor=none;top=0;left=0;bottom=0;right=0;" parent="iuXq785Svx12iFxmTYCm-270" vertex="1">
          <mxGeometry x="100" width="91" height="53" as="geometry" />
        </mxCell>
        <mxCell id="Yx1ct2XPLeCev9idxveK-8" style="shape=partialRectangle;html=1;whiteSpace=wrap;connectable=0;overflow=hidden;fillColor=none;top=0;left=0;bottom=0;right=0;" vertex="1" parent="iuXq785Svx12iFxmTYCm-270">
          <mxGeometry x="191" width="91" height="53" as="geometry" />
        </mxCell>
        <mxCell id="iuXq785Svx12iFxmTYCm-274" style="shape=partialRectangle;collapsible=0;dropTarget=0;pointerEvents=0;fillColor=none;top=0;left=0;bottom=0;right=0;points=[[0,0.5],[1,0.5]];portConstraint=eastwest;" parent="iuXq785Svx12iFxmTYCm-265" vertex="1">
          <mxGeometry y="106" width="282" height="53" as="geometry" />
        </mxCell>
        <mxCell id="iuXq785Svx12iFxmTYCm-275" value="Parameter 2" style="shape=partialRectangle;html=1;whiteSpace=wrap;connectable=0;overflow=hidden;fillColor=none;top=0;left=0;bottom=0;right=0;" parent="iuXq785Svx12iFxmTYCm-274" vertex="1">
          <mxGeometry width="100" height="53" as="geometry" />
        </mxCell>
        <mxCell id="iuXq785Svx12iFxmTYCm-276" style="shape=partialRectangle;html=1;whiteSpace=wrap;connectable=0;overflow=hidden;fillColor=none;top=0;left=0;bottom=0;right=0;" parent="iuXq785Svx12iFxmTYCm-274" vertex="1">
          <mxGeometry x="100" width="91" height="53" as="geometry" />
        </mxCell>
        <mxCell id="Yx1ct2XPLeCev9idxveK-9" style="shape=partialRectangle;html=1;whiteSpace=wrap;connectable=0;overflow=hidden;fillColor=none;top=0;left=0;bottom=0;right=0;" vertex="1" parent="iuXq785Svx12iFxmTYCm-274">
          <mxGeometry x="191" width="91" height="53" as="geometry" />
        </mxCell>
        <mxCell id="iuXq785Svx12iFxmTYCm-278" value="" style="shape=partialRectangle;collapsible=0;dropTarget=0;pointerEvents=0;fillColor=none;top=0;left=0;bottom=0;right=0;points=[[0,0.5],[1,0.5]];portConstraint=eastwest;" parent="iuXq785Svx12iFxmTYCm-265" vertex="1">
          <mxGeometry y="159" width="282" height="52" as="geometry" />
        </mxCell>
        <mxCell id="iuXq785Svx12iFxmTYCm-279" value="Parameter 3" style="shape=partialRectangle;html=1;whiteSpace=wrap;connectable=0;overflow=hidden;fillColor=none;top=0;left=0;bottom=0;right=0;" parent="iuXq785Svx12iFxmTYCm-278" vertex="1">
          <mxGeometry width="100" height="52" as="geometry" />
        </mxCell>
        <mxCell id="iuXq785Svx12iFxmTYCm-280" value="" style="shape=partialRectangle;html=1;whiteSpace=wrap;connectable=0;overflow=hidden;fillColor=none;top=0;left=0;bottom=0;right=0;" parent="iuXq785Svx12iFxmTYCm-278" vertex="1">
          <mxGeometry x="100" width="91" height="52" as="geometry" />
        </mxCell>
        <mxCell id="Yx1ct2XPLeCev9idxveK-10" style="shape=partialRectangle;html=1;whiteSpace=wrap;connectable=0;overflow=hidden;fillColor=none;top=0;left=0;bottom=0;right=0;" vertex="1" parent="iuXq785Svx12iFxmTYCm-278">
          <mxGeometry x="191" width="91" height="52" as="geometry" />
        </mxCell>
        <mxCell id="iuXq785Svx12iFxmTYCm-282" value="" style="shape=partialRectangle;collapsible=0;dropTarget=0;pointerEvents=0;fillColor=none;top=0;left=0;bottom=0;right=0;points=[[0,0.5],[1,0.5]];portConstraint=eastwest;" parent="iuXq785Svx12iFxmTYCm-265" vertex="1">
          <mxGeometry y="211" width="282" height="53" as="geometry" />
        </mxCell>
        <mxCell id="iuXq785Svx12iFxmTYCm-283" value="Parameter 4" style="shape=partialRectangle;html=1;whiteSpace=wrap;connectable=0;overflow=hidden;fillColor=none;top=0;left=0;bottom=0;right=0;" parent="iuXq785Svx12iFxmTYCm-282" vertex="1">
          <mxGeometry width="100" height="53" as="geometry" />
        </mxCell>
        <mxCell id="iuXq785Svx12iFxmTYCm-284" value="" style="shape=partialRectangle;html=1;whiteSpace=wrap;connectable=0;overflow=hidden;fillColor=none;top=0;left=0;bottom=0;right=0;" parent="iuXq785Svx12iFxmTYCm-282" vertex="1">
          <mxGeometry x="100" width="91" height="53" as="geometry" />
        </mxCell>
        <mxCell id="Yx1ct2XPLeCev9idxveK-11" style="shape=partialRectangle;html=1;whiteSpace=wrap;connectable=0;overflow=hidden;fillColor=none;top=0;left=0;bottom=0;right=0;" vertex="1" parent="iuXq785Svx12iFxmTYCm-282">
          <mxGeometry x="191" width="91" height="53" as="geometry" />
        </mxCell>
        <mxCell id="iuXq785Svx12iFxmTYCm-286" value="" style="shape=partialRectangle;collapsible=0;dropTarget=0;pointerEvents=0;fillColor=none;top=0;left=0;bottom=0;right=0;points=[[0,0.5],[1,0.5]];portConstraint=eastwest;" parent="iuXq785Svx12iFxmTYCm-265" vertex="1">
          <mxGeometry y="264" width="282" height="53" as="geometry" />
        </mxCell>
        <mxCell id="iuXq785Svx12iFxmTYCm-287" value="Parameter 5" style="shape=partialRectangle;html=1;whiteSpace=wrap;connectable=0;overflow=hidden;fillColor=none;top=0;left=0;bottom=0;right=0;" parent="iuXq785Svx12iFxmTYCm-286" vertex="1">
          <mxGeometry width="100" height="53" as="geometry" />
        </mxCell>
        <mxCell id="iuXq785Svx12iFxmTYCm-288" value="" style="shape=partialRectangle;html=1;whiteSpace=wrap;connectable=0;overflow=hidden;fillColor=none;top=0;left=0;bottom=0;right=0;" parent="iuXq785Svx12iFxmTYCm-286" vertex="1">
          <mxGeometry x="100" width="91" height="53" as="geometry" />
        </mxCell>
        <mxCell id="Yx1ct2XPLeCev9idxveK-12" style="shape=partialRectangle;html=1;whiteSpace=wrap;connectable=0;overflow=hidden;fillColor=none;top=0;left=0;bottom=0;right=0;" vertex="1" parent="iuXq785Svx12iFxmTYCm-286">
          <mxGeometry x="191" width="91" height="53" as="geometry" />
        </mxCell>
      </root>
    </mxGraphModel>
  </diagram>
</mxfile>
